<svg width="116" height="36" xmlns="http://www.w3.org/2000/svg" xmlns:xlink="http://www.w3.org/1999/xlink" overflow="hidden"><defs><clipPath id="clip0"><rect x="5" y="327" width="116" height="36"/></clipPath><clipPath id="clip1"><rect x="12" y="332" width="25" height="26"/></clipPath><clipPath id="clip2"><rect x="12" y="332" width="26" height="26"/></clipPath><clipPath id="clip3"><rect x="12" y="332" width="26" height="26"/></clipPath></defs><g clip-path="url(#clip0)" transform="translate(-5 -327)"><path d="M6.50005 331.485C6.50005 329.837 7.83655 328.5 9.4852 328.5L117.515 328.5C119.164 328.5 120.5 329.837 120.5 331.485L120.5 359.515C120.5 361.164 119.164 362.5 117.515 362.5L9.4852 362.5C7.83655 362.5 6.50005 361.164 6.50005 359.515Z" stroke="#000000" stroke-width="1.33333" stroke-miterlimit="8" fill-rule="evenodd"/><path d="M6.5 360.013 6.5 330.988C6.5 329.614 7.61366 328.5 8.98742 328.5L43.5 328.5 43.5 362.5 8.98742 362.5C7.61366 362.5 6.5 361.386 6.5 360.013Z" stroke="#00979D" stroke-width="1.33333" stroke-miterlimit="8" fill="#00979D" fill-rule="evenodd"/><g clip-path="url(#clip1)"><g clip-path="url(#clip2)"><g clip-path="url(#clip3)"><path d="M24.8125 12.5C24.7498 9.17867 22.009 6.53569 18.6875 6.59375 18.3854 6.59375 18.0625 6.61458 17.75 6.64583 15.125 7.03125 13.375 8.91667 12.4062 10.3646 11.4167 8.91667 9.65625 7.03125 7.05208 6.64583 6.73958 6.61458 6.42708 6.59375 6.11458 6.59375 2.7972 6.5415 0.0627297 9.1828-1.19209e-07 12.5 0.0627297 15.8172 2.7972 18.4585 6.11458 18.4062 6.42708 18.4062 6.73958 18.3854 7.07292 18.3438 9.69792 17.9688 11.4479 16.0833 12.4271 14.6354 13.4167 16.0833 15.1667 17.9688 17.7812 18.3542 18.1042 18.3854 18.4062 18.4062 18.7292 18.4062 22.0344 18.4411 24.7498 15.8049 24.8125 12.5ZM6.75 16.25C6.54167 16.2917 6.30208 16.2917 6.09375 16.2917 3.93658 16.3383 2.14578 14.6359 2.08333 12.4792 2.15139 10.3208 3.94519 8.61989 6.10417 8.66667 6.3125 8.66667 6.54167 8.6875 6.76042 8.70833 9.22917 9.07292 10.7396 11.4896 11.25 12.4792 10.7292 13.4688 9.21875 15.9167 6.76042 16.25ZM13.5417 12.5C14.0521 11.5312 15.5625 9.09375 18.0312 8.72917 18.2396 8.6875 18.4687 8.6875 18.6771 8.6875 20.8393 8.62348 22.644 10.3244 22.7079 12.4866 22.7081 12.491 22.7082 12.4955 22.7083 12.5 22.6403 14.6584 20.8465 16.3593 18.6875 16.3125 18.4792 16.3125 18.25 16.2917 18.0417 16.2708 15.5833 15.9062 14.0625 13.4688 13.5521 12.5ZM4.38542 13.1146 8.07292 13.1146 8.07292 11.9062 4.39583 11.9062 4.39583 13.1146ZM19.1042 13.1146 20.3438 13.1146 20.3438 11.9062 19.0938 11.9062 19.0938 10.6667 17.9167 10.6667 17.9167 11.9167 16.6667 11.9167 16.6667 13.1146 17.9167 13.1146 17.9167 14.3438 19.1146 14.3438 19.1146 13.125ZM25 7.35417C25 7.66667 24.7708 7.88542 24.4479 7.88542 24.1548 7.89698 23.9077 7.66868 23.8961 7.37551 23.896 7.37186 23.8959 7.36823 23.8958 7.36458 23.8958 7.07292 24.1458 6.82292 24.4479 6.82292 24.7708 6.82292 25 7.05208 25 7.35417ZM24.0521 7.35417C24.0521 7.58333 24.2188 7.77083 24.4687 7.77083 24.6979 7.77083 24.8646 7.58333 24.8646 7.35417 24.8646 7.125 24.6979 6.9375 24.4687 6.9375 24.2188 6.91667 24.0521 7.10417 24.0521 7.35417ZM24.3646 7.625 24.2604 7.625 24.2604 7.08333 24.4687 7.07292C24.5625 7.07292 24.6146 7.08333 24.6562 7.10417 24.6979 7.125 24.7187 7.16667 24.7187 7.21875 24.7187 7.28125 24.6771 7.32292 24.6042 7.33333 24.6562 7.35417 24.6771 7.39583 24.6979 7.46875L24.7292 7.60417 24.6042 7.60417C24.5833 7.58333 24.5833 7.53125 24.5625 7.46875 24.5417 7.41667 24.5208 7.39583 24.4479 7.39583L24.3958 7.39583 24.375 7.625ZM24.3854 7.3125 24.4479 7.3125C24.5208 7.3125 24.5521 7.30208 24.5521 7.23958 24.5521 7.1875 24.5208 7.16667 24.4479 7.16667L24.375 7.16667 24.375 7.3125 24.3854 7.3125Z" fill="#FFFFFF" transform="matrix(1 0 0 1.04 12 332)"/></g></g></g><text fill="#FFFFFF" font-family="Arial,Arial_MSFontService,sans-serif" font-weight="700" font-size="13" transform="translate(56.2177 350)">Arduino</text></g></svg>