<svg width="126" height="37" xmlns="http://www.w3.org/2000/svg" xmlns:xlink="http://www.w3.org/1999/xlink" overflow="hidden"><defs><clipPath id="clip0"><rect x="5" y="370" width="126" height="37"/></clipPath><clipPath id="clip1"><rect x="12" y="376" width="25" height="26"/></clipPath><clipPath id="clip2"><rect x="12" y="376" width="26" height="26"/></clipPath><clipPath id="clip3"><rect x="12" y="376" width="26" height="26"/></clipPath></defs><g clip-path="url(#clip0)" transform="translate(-5 -370)"><path d="M6.50005 375.485C6.50005 373.837 7.83655 372.5 9.48521 372.5L125.515 372.5C127.164 372.5 128.5 373.837 128.5 375.485L128.5 403.515C128.5 405.164 127.164 406.5 125.515 406.5L9.48521 406.5C7.83655 406.5 6.50005 405.164 6.50005 403.515Z" stroke="#000000" stroke-width="1.33333" stroke-miterlimit="8" fill-rule="evenodd"/><path d="M6.5 404.013 6.5 374.988C6.5 373.614 7.61366 372.5 8.98742 372.5L43.5 372.5 43.5 406.5 8.98742 406.5C7.61366 406.5 6.5 405.386 6.5 404.013Z" stroke="#C51A4A" stroke-width="1.33333" stroke-miterlimit="8" fill="#C51A4A" fill-rule="evenodd"/><g clip-path="url(#clip1)"><g clip-path="url(#clip2)"><g clip-path="url(#clip3)"><path d="M16.7823 18.0604C15.8896 19.0906 15.3927 20.9667 16.0438 21.5719 16.6646 22.0396 18.3365 21.9792 19.5698 20.2906 20.4656 19.1656 20.1625 17.2771 19.6542 16.7781 18.8937 16.2 17.8021 16.949 16.7823 18.0729L16.7823 18.0604ZM8.38958 18.3729C7.44375 17.2896 6.21458 16.6458 5.41979 17.124 4.88854 17.5219 4.78958 18.8792 5.54792 20.2146 6.67083 21.8021 8.25208 21.9635 8.90312 21.576 9.58958 21.0677 9.21562 19.35 8.38958 18.3729ZM12.6656 21.649C11.5167 21.6219 9.75104 22.1062 9.77396 22.724 9.75521 23.1437 11.1604 24.3615 12.5917 24.3 13.9729 24.3312 15.4031 23.1135 15.3854 22.5823 15.3812 22.0375 13.825 21.6167 12.6698 21.6615L12.6656 21.649ZM12.5875 7.12396C11.2594 7.09062 9.98125 8.09583 9.98125 8.67917 9.97708 9.3875 11.0312 10.1125 12.5958 10.1312 14.2031 10.1417 15.2187 9.54896 15.2333 8.81875 15.25 7.99167 13.7812 7.11146 12.6104 7.12396L12.5875 7.12396ZM9.38854 7.67812C7.16458 7.31875 5.3125 8.61562 5.38646 11.0031 5.45937 11.924 10.2094 7.83542 9.38958 7.69375L9.38854 7.67812ZM19.5437 11.0646C19.6177 8.69271 17.7635 7.39687 15.5396 7.75625 14.7198 7.89687 19.4688 11.9865 19.5437 11.0646ZM19.9229 11.9229C18.6323 11.5802 19.4854 17.1823 20.5354 16.7302 21.6906 15.825 22.0625 13.1406 19.9229 11.9385L19.9229 11.9229ZM4.40417 16.7927C5.45312 17.2615 6.30729 11.6583 5.01771 12.001 2.87917 13.2021 3.24896 15.8865 4.40417 16.8083L4.40417 16.7927ZM14.2115 10.5969C13.0177 11.3781 12.801 13.126 13.7312 14.499 14.6594 15.8719 16.3802 16.3875 17.576 15.6219 18.7698 14.8583 18.9854 13.1094 18.0573 11.7198 17.1281 10.3313 15.4062 9.83125 14.2115 10.6125L14.2115 10.5969ZM10.9865 10.7375C9.79271 9.97292 8.07083 10.4729 7.14375 11.8458 6.21458 13.2354 6.42917 14.9833 7.62396 15.7635 8.81875 16.5437 10.5396 16.0438 11.4688 14.6552 12.3906 13.2823 12.1719 11.5333 10.9844 10.7542L10.9865 10.7375ZM15.5375 18.1979C15.5281 16.7469 14.2333 15.575 12.6406 15.5917 11.05 15.6083 9.76458 16.7781 9.77187 18.2292L9.77187 18.2594C9.78229 19.7115 11.0781 20.8812 12.6708 20.8656 14.2615 20.8656 15.5417 19.6802 15.5271 18.2437L15.5271 18.2135 15.5375 18.1979ZM18.8802 2.43437C16.4771 3.66771 15.076 4.65104 14.3083 5.49479 14.701 7.05521 16.75 7.11771 17.499 7.06979 17.3458 7.00729 17.2167 6.91458 17.1708 6.78958 17.3583 6.66458 18.026 6.77292 18.4917 6.52396 18.3135 6.49271 18.2292 6.46042 18.149 6.32083 18.5854 6.18021 19.0604 6.07083 19.3375 5.83646 19.1885 5.83646 19.0479 5.86771 18.851 5.74271 19.2437 5.54062 19.6615 5.36875 19.9917 5.05729 19.7875 5.05729 19.5687 5.05729 19.5062 4.97917 19.8667 4.76042 20.1677 4.52604 20.4198 4.24583 20.1365 4.29271 20.0135 4.2625 19.9469 4.21458 20.2188 3.94896 20.5646 3.71562 20.7271 3.37083 20.5156 3.45 20.3198 3.46458 20.1833 3.37083 20.2781 3.16875 20.6729 3.04375 20.9021 2.55937 20.6781 2.59062 20.4427 2.60729 20.3958 2.55937 20.4979 2.15417 20.676 1.92083 20.849 1.66979 20.3729 1.66979 19.651 1.66979 19.6854 1.63958L19.9802 1.34271C19.5135 1.21771 19.0385 1.35833 18.6927 1.46771 18.5375 1.35833 18.6927 1.20208 18.8854 1.04583 18.4792 1.10938 18.1219 1.18646 17.8083 1.3125 17.6375 1.15625 17.9177 1.01562 18.0583 0.858333 17.4344 0.983333 17.1844 1.13958 16.9188 1.29583 16.7312 1.12396 16.9031 0.96875 17.0271 0.828125 16.5594 0.998958 16.325 1.21771 16.075 1.41979 15.9812 1.31146 15.8573 1.23333 16.0125 0.952083 15.6854 1.13958 15.4354 1.35833 15.2479 1.60729 15.0458 1.46771 15.124 1.29583 15.124 1.13958 14.7802 1.42083 14.5615 1.70208 14.2969 1.98437 14.2333 1.95208 14.1875 1.82812 14.1562 1.62396 13.3448 2.40521 12.1885 4.35625 13.8594 5.11979 15.2646 3.98021 16.9646 3.1375 18.8375 2.5125L18.8802 2.43437ZM6.11042 2.43437C7.98333 3.05937 9.67187 3.90104 11.0865 5.05729 12.749 4.27604 11.6 2.325 10.7927 1.56146 10.75 1.76354 10.7042 1.90417 10.6521 1.93542 10.3865 1.65417 10.1708 1.37292 9.83125 1.09167 9.83125 1.24792 9.91146 1.43542 9.70937 1.56042 9.52708 1.31146 9.28229 1.09167 8.95417 0.904167 9.10938 1.17083 8.98021 1.24792 8.89583 1.37187 8.64583 1.1375 8.41146 0.919792 7.95937 0.747917 8.08437 0.903125 8.27187 1.06042 8.08437 1.23229 7.83542 1.07708 7.56979 0.919792 6.96146 0.794792 7.10208 0.95 7.38229 1.10729 7.20937 1.26354 6.88125 1.13646 6.52187 1.04271 6.13125 0.994792 6.31979 1.15104 6.4875 1.29583 6.33125 1.41667 5.97187 1.29167 5.49167 1.15104 5.02396 1.27604L5.31979 1.57187C5.35104 1.61042 4.63333 1.60312 4.15208 1.60833 4.32396 1.84271 4.50312 2.07604 4.60521 2.49792 4.55833 2.54479 4.32396 2.51458 4.10208 2.49792 4.33646 2.96562 4.72604 3.09167 4.81875 3.29479 4.67812 3.39479 4.49167 3.37292 4.27396 3.29479 4.44479 3.62187 4.78854 3.85625 5.05312 4.13854 4.97604 4.18437 4.86562 4.21562 4.56979 4.17708 4.81875 4.44792 5.11562 4.69167 5.475 4.91042 5.4125 4.98333 5.19271 4.98229 4.97604 4.98854 5.30312 5.30521 5.725 5.47187 6.11562 5.67917 5.9125 5.82083 5.77187 5.78854 5.63125 5.78854 5.89687 6.02292 6.38125 6.13125 6.81771 6.27187 6.72396 6.4125 6.64687 6.44375 6.45937 6.475 6.92708 6.73958 7.58229 6.61562 7.76979 6.75625 7.72292 6.88021 7.59896 6.97396 7.44271 7.0375 8.19167 7.08437 10.2521 7.02187 10.6427 5.46042 9.87604 4.61979 8.47188 3.63542 6.06875 2.41771L6.11042 2.43437ZM7.91667 0.107292C8.1625 0.1 8.37083 0.247917 8.59583 0.316667 9.14687 0.139583 9.27292 0.382292 9.54375 0.482292 10.1448 0.357292 10.3271 0.629167 10.6156 0.91875L10.951 0.909375C11.8562 1.4375 12.3104 2.50937 12.4688 3.06042 12.6271 2.50937 13.0771 1.43646 13.9865 0.909375L14.3208 0.916667C14.6094 0.621875 14.7927 0.355208 15.3927 0.48125 15.6646 0.371875 15.7885 0.1375 16.3417 0.308333 16.6854 0.2 16.9875-0.0822917 17.4427 0.261458 17.826 0.10625 18.199 0.0583333 18.5312 0.355208 19.0469 0.292708 19.2115 0.41875 19.3375 0.573958 19.45 0.573958 20.1802 0.465625 20.5167 0.948958 21.3604 0.855208 21.625 1.43229 21.3229 1.97812 21.4948 2.24375 21.674 2.49271 21.2708 2.99375 21.4271 3.27396 21.3354 3.56979 20.9896 3.94479 21.0844 4.33437 20.9125 4.60104 20.6 4.81875 20.6625 5.35 20.1 5.6625 19.9448 5.77083 19.8813 6.08333 19.7562 6.37917 19.1167 6.53542 19.024 7.00312 18.6333 7.08021 18.2583 7.175 19.4927 7.87812 20.5375 8.79792 20.5375 11.0615L20.726 11.3729C22.1313 12.2156 23.3948 14.9167 21.4281 17.1167 21.3042 17.8031 21.0854 18.2875 20.8958 18.8333 20.6156 21.0344 18.7271 22.0635 18.2281 22.1885 17.5104 22.7354 16.7302 23.251 15.6844 23.6083 14.7031 24.6094 13.626 25 12.5656 25L12.4698 25C11.3937 25 10.3208 24.6094 9.33229 23.6094 8.28333 23.251 7.50521 22.7365 6.78333 22.1896 6.28437 22.0646 4.40521 21.0365 4.11458 18.8344 3.91979 18.2885 3.70417 17.7885 3.575 17.1031 1.60208 14.9021 2.86562 12.2021 4.26875 11.3583L4.44792 11.0458C4.44792 8.78333 5.49479 7.86146 6.72708 7.16042 6.35312 7.06667 5.97708 6.98854 5.86979 6.51979 5.22917 6.36354 5.10417 6.06771 5.04167 5.75521 4.88542 5.64583 4.32396 5.33437 4.38646 4.78854 4.07396 4.56875 3.90208 4.30417 3.99583 3.89896 3.66875 3.53854 3.575 3.22708 3.71458 2.94583 3.30833 2.44687 3.49688 2.18229 3.66771 1.93125 3.37083 1.38437 3.63646 0.791667 4.47917 0.885417 4.80625 0.401042 5.54167 0.511458 5.64896 0.511458 5.775 0.355208 5.94583 0.214583 6.46042 0.277083 6.7875-0.0197917 7.16354 0.0270833 7.55312 0.170833 7.71042 0.0458333 7.85104 2.89121e-17 7.97604 2.89121e-17L7.91667 0.107292Z" fill="#FFFFFF" transform="matrix(1 0 0 1.04 12 376)"/></g></g></g><text fill="#FFFFFF" font-family="Arial,Arial_MSFontService,sans-serif" font-weight="700" font-size="13" transform="translate(48.6499 394)">Rasberry<tspan font-size="13" x="61.1667" y="0">P</tspan>i</text></g></svg>