<svg width="117" height="37" xmlns="http://www.w3.org/2000/svg" xmlns:xlink="http://www.w3.org/1999/xlink" overflow="hidden"><defs><clipPath id="clip0"><rect x="5" y="53" width="117" height="37"/></clipPath><clipPath id="clip1"><rect x="12" y="59" width="26" height="26"/></clipPath><clipPath id="clip2"><rect x="12" y="59" width="26" height="26"/></clipPath><clipPath id="clip3"><rect x="12" y="59" width="26" height="26"/></clipPath></defs><g clip-path="url(#clip0)" transform="translate(-5 -53)"><path d="M7.50005 57.5731C7.50005 55.8759 8.87589 54.5001 10.5731 54.5001L117.427 54.5001C119.124 54.5001 120.5 55.8759 120.5 57.5731L120.5 86.427C120.5 88.1242 119.124 89.5001 117.427 89.5001L10.5731 89.5001C8.87589 89.5001 7.50005 88.1242 7.50005 86.427Z" stroke="#000000" stroke-width="1.33333" stroke-miterlimit="8" fill-rule="evenodd"/><path d="M7.5 86.9395 7.5 57.0607C7.5 55.6465 8.64642 54.5001 10.0606 54.5001L43.5 54.5001 43.5 89.5001 10.0606 89.5001C8.64642 89.5001 7.5 88.3537 7.5 86.9395Z" stroke="#FF5722" stroke-width="1.33333" stroke-miterlimit="8" fill="#FF5722" fill-rule="evenodd"/><text fill="#FFFFFF" font-family="Arial,Arial_MSFontService,sans-serif" font-weight="700" font-size="13" transform="translate(56.3635 76)">Blogger</text><g clip-path="url(#clip1)"><g clip-path="url(#clip2)"><g clip-path="url(#clip3)"><path d="M35.8073 85 14.1948 85C12.975 85 12 84.025 12 82.8073L12 61.1948C12 59.975 12.975 59 14.1938 59L35.8875 59C37.025 59 38 59.975 38 61.1937L38 82.8063C38 84.025 37.025 85 35.8073 85ZM25 63.3063 21.75 63.3063C18.7437 63.3063 16.3062 65.7438 16.3062 68.75L16.3062 75.25C16.3062 78.2552 18.7437 80.6927 21.75 80.6927L28.25 80.6927C31.2552 80.6927 33.6927 78.2552 33.6927 75.25L33.6927 70.9437C33.6927 70.2937 33.2052 69.8063 32.5552 69.8063L31.5 69.8063C30.9323 69.8063 30.4427 69.3187 30.4427 68.7489 30.4427 65.7416 28.0052 63.3041 25 63.3041ZM28.3302 76.3063 21.75 76.3063C21.1813 76.3063 20.6938 75.8187 20.6938 75.25 20.6938 74.6813 21.1813 74.1927 21.75 74.1927L28.3302 74.1927C28.9 74.1927 29.3886 74.6802 29.3886 75.25 29.3886 75.8198 28.9011 76.3073 28.3323 76.3073ZM25.5677 67.6937C26.1386 67.6937 26.625 68.1813 26.625 68.75 26.625 69.3187 26.1375 69.8063 25.5688 69.8063L21.6688 69.8063C21.1 69.8063 20.6114 69.3187 20.6114 68.75 20.6114 68.1813 21.0989 67.6937 21.6677 67.6937L25.5677 67.6937Z" fill="#FFFFFF"/></g></g></g></g></svg>