<svg width="117" height="37" xmlns="http://www.w3.org/2000/svg" xmlns:xlink="http://www.w3.org/1999/xlink" overflow="hidden"><defs><clipPath id="clip0"><rect x="5" y="101" width="117" height="36"/></clipPath><clipPath id="clip1"><rect x="12" y="106" width="26" height="26"/></clipPath><clipPath id="clip2"><rect x="12" y="106" width="26" height="26"/></clipPath><clipPath id="clip3"><rect x="12" y="106" width="26" height="26"/></clipPath></defs><g clip-path="url(#clip0)" transform="translate(-5 -101)"><path d="M7.50005 105.485C7.50005 103.837 8.83655 102.5 10.4852 102.5L117.515 102.5C119.164 102.5 120.5 103.837 120.5 105.485L120.5 133.515C120.5 135.164 119.164 136.5 117.515 136.5L10.4852 136.5C8.83655 136.5 7.50005 135.164 7.50005 133.515Z" stroke="#000000" stroke-width="1.33333" stroke-miterlimit="8" fill-rule="evenodd"/><path d="M7.50005 134.013 7.50005 104.987C7.50005 103.614 8.61372 102.5 9.98749 102.5L43.5 102.5 43.5 136.5 9.98749 136.5C8.61372 136.5 7.50005 135.386 7.50005 134.013Z" stroke="#D14836" stroke-width="1.33333" stroke-miterlimit="8" fill="#D14836" fill-rule="evenodd"/><text fill="#FFFFFF" font-family="Arial,Arial_MSFontService,sans-serif" font-weight="700" font-size="13" transform="translate(63.1133 124)">Gmail</text><g clip-path="url(#clip1)"><g clip-path="url(#clip2)"><g clip-path="url(#clip3)"><path d="M38 110.875 38 127.125C38 128.046 37.2958 128.75 36.375 128.75L34.75 128.75 34.75 114.003 25 121.004 15.25 114.003 15.25 128.75 13.625 128.75C12.7031 128.75 12 128.046 12 127.125L12 110.875C12 110.415 12.1755 110.008 12.4669 109.718 12.7583 109.423 13.1657 109.25 13.625 109.25L14.1667 109.25 25 117.104 35.8333 109.25 36.375 109.25C36.8354 109.25 37.2417 109.425 37.5331 109.718 37.8256 110.008 38 110.415 38 110.875Z" fill="#FFFFFF"/></g></g></g></g></svg>