<svg width="117" height="37" xmlns="http://www.w3.org/2000/svg" xmlns:xlink="http://www.w3.org/1999/xlink" overflow="hidden"><defs><clipPath id="clip0"><rect x="6" y="146" width="117" height="37"/></clipPath><clipPath id="clip1"><rect x="12" y="151" width="26" height="26"/></clipPath><clipPath id="clip2"><rect x="12" y="151" width="26" height="26"/></clipPath><clipPath id="clip3"><rect x="12" y="151" width="26" height="26"/></clipPath></defs><g clip-path="url(#clip0)" transform="translate(-6 -146)"><path d="M7.50005 150.485C7.50005 148.837 8.83655 147.5 10.4852 147.5L117.515 147.5C119.164 147.5 120.5 148.837 120.5 150.485L120.5 178.515C120.5 180.164 119.164 181.5 117.515 181.5L10.4852 181.5C8.83655 181.5 7.50005 180.164 7.50005 178.515Z" stroke="#000000" stroke-width="1.33333" stroke-miterlimit="8" fill-rule="evenodd"/><path d="M7.50005 179.013 7.50005 149.987C7.50005 148.614 8.61372 147.5 9.98749 147.5L43.5 147.5 43.5 181.5 9.98749 181.5C8.61372 181.5 7.50005 180.386 7.50005 179.013Z" stroke="#E4405F" stroke-width="1.33333" stroke-miterlimit="8" fill="#E4405F" fill-rule="evenodd"/><g clip-path="url(#clip1)"><g clip-path="url(#clip2)"><g clip-path="url(#clip3)"><path d="M25 151C21.4683 151 21.0274 151.016 19.6408 151.078 18.2563 151.143 17.3138 151.361 16.485 151.682 15.6302 152.014 14.9044 152.459 14.1818 153.182 13.4593 153.904 13.0129 154.629 12.6825 155.485 12.3608 156.314 12.1419 157.256 12.078 158.641 12.013 160.027 12 160.468 12 164 12 167.532 12.0162 167.973 12.078 169.359 12.143 170.743 12.3608 171.686 12.6825 172.515 13.014 173.369 13.4593 174.096 14.1818 174.818 14.9044 175.54 15.6292 175.987 16.485 176.318 17.3148 176.638 18.2573 176.858 19.6408 176.922 21.0274 176.987 21.4683 177 25 177 28.5317 177 28.9726 176.984 30.3593 176.922 31.7427 176.857 32.6862 176.638 33.515 176.318 34.3687 175.986 35.0956 175.54 35.8182 174.818 36.5397 174.096 36.9871 173.372 37.3175 172.515 37.6382 171.686 37.8581 170.743 37.922 169.359 37.987 167.973 38 167.532 38 164 38 160.468 37.9837 160.027 37.922 158.641 37.857 157.257 37.6382 156.313 37.3175 155.485 36.986 154.63 36.5397 153.904 35.8182 153.182 35.0956 152.459 34.3719 152.013 33.515 151.682 32.6862 151.361 31.7427 151.142 30.3593 151.078 28.9726 151.013 28.5317 151 25 151ZM25 153.34C28.4699 153.34 28.8838 153.357 30.2542 153.417 31.5217 153.477 32.2096 153.687 32.6667 153.867 33.2756 154.102 33.7067 154.383 34.1639 154.837 34.6178 155.292 34.8995 155.724 35.1346 156.333 35.3122 156.79 35.5246 157.478 35.582 158.746 35.6438 160.117 35.6578 160.529 35.6578 164 35.6578 167.471 35.6416 167.884 35.5777 169.254 35.5116 170.522 35.3003 171.21 35.1216 171.667 34.8789 172.276 34.6027 172.707 34.1477 173.164 33.6937 173.618 33.255 173.9 32.6527 174.135 32.1977 174.312 31.4989 174.525 30.2314 174.582 28.8513 174.644 28.445 174.658 24.9675 174.658 21.4889 174.658 21.0827 174.642 19.7036 174.578 18.435 174.512 17.7362 174.3 17.2812 174.122 16.6648 173.879 16.2412 173.603 15.7873 173.148 15.3313 172.694 15.0398 172.255 14.8123 171.653 14.6336 171.198 14.4234 170.499 14.3573 169.231 14.3086 167.866 14.2913 167.445 14.2913 163.984 14.2913 160.521 14.3086 160.099 14.3573 158.718 14.4234 157.45 14.6336 156.753 14.8123 156.298 15.0398 155.68 15.3313 155.258 15.7873 154.801 16.2412 154.348 16.6648 154.055 17.2812 153.829 17.7362 153.649 18.4198 153.438 19.6873 153.372 21.0686 153.324 21.4748 153.307 24.9513 153.307L25 153.34ZM25 157.324C21.3113 157.324 18.3245 160.314 18.3245 164 18.3245 167.689 21.3145 170.676 25 170.676 28.6888 170.676 31.6755 167.686 31.6755 164 31.6755 160.311 28.6855 157.324 25 157.324ZM25 168.333C22.6058 168.333 20.6667 166.394 20.6667 164 20.6667 161.606 22.6058 159.667 25 159.667 27.3942 159.667 29.3333 161.606 29.3333 164 29.3333 166.394 27.3942 168.333 25 168.333ZM33.4998 157.061C33.4998 157.923 32.8 158.621 31.9398 158.621 31.0786 158.621 30.3798 157.921 30.3798 157.061 30.3798 156.201 31.0797 155.502 31.9398 155.502 32.7989 155.501 33.4998 156.201 33.4998 157.061Z" fill="#FFFFFF"/></g></g></g><text fill="#FFFFFF" font-family="Arial,Arial_MSFontService,sans-serif" font-weight="700" font-size="13" transform="translate(50.676 169)">Instagra<tspan font-size="13" x="51.6667" y="0">m</tspan></text></g></svg>