<svg width="117" height="37" xmlns="http://www.w3.org/2000/svg" xmlns:xlink="http://www.w3.org/1999/xlink" overflow="hidden"><defs><clipPath id="clip0"><rect x="5" y="192" width="117" height="37"/></clipPath><clipPath id="clip1"><rect x="12" y="198" width="26" height="26"/></clipPath><clipPath id="clip2"><rect x="12" y="198" width="26" height="26"/></clipPath><clipPath id="clip3"><rect x="12" y="198" width="26" height="26"/></clipPath></defs><g clip-path="url(#clip0)" transform="translate(-5 -192)"><path d="M7.50005 196.573C7.50005 194.876 8.87589 193.5 10.5731 193.5L117.427 193.5C119.124 193.5 120.5 194.876 120.5 196.573L120.5 225.427C120.5 227.124 119.124 228.5 117.427 228.5L10.5731 228.5C8.87589 228.5 7.50005 227.124 7.50005 225.427Z" stroke="#000000" stroke-width="1.33333" stroke-miterlimit="8" fill-rule="evenodd"/><path d="M7.5 225.94 7.5 196.061C7.5 194.647 8.64642 193.5 10.0606 193.5L43.5 193.5 43.5 228.5 10.0606 228.5C8.64642 228.5 7.5 227.354 7.5 225.94Z" stroke="#0077B5" stroke-width="1.33333" stroke-miterlimit="8" fill="#0077B5" fill-rule="evenodd"/><g clip-path="url(#clip1)"><g clip-path="url(#clip2)"><g clip-path="url(#clip3)"><path d="M34.1509 220.156 30.3008 220.156 30.3008 214.123C30.3008 212.685 30.2715 210.833 28.2944 210.833 26.287 210.833 25.9804 212.399 25.9804 214.017L25.9804 220.156 22.1302 220.156 22.1302 207.75 25.8288 207.75 25.8288 209.441 25.8786 209.441C26.3953 208.466 27.652 207.437 29.5294 207.437 33.4305 207.437 34.152 210.004 34.152 213.346L34.152 220.156ZM17.7817 206.052C16.5424 206.052 15.5468 205.049 15.5468 203.815 15.5468 202.583 16.5435 201.58 17.7817 201.58 19.0168 201.58 20.0177 202.583 20.0177 203.815 20.0177 205.049 19.0157 206.052 17.7817 206.052ZM19.7122 220.156 15.8512 220.156 15.8512 207.75 19.7122 207.75 19.7122 220.156ZM36.0771 198 13.9186 198C12.858 198 12 198.839 12 199.873L12 222.127C12 223.163 12.858 224 13.9186 224L36.0738 224C37.1333 224 38 223.163 38 222.127L38 199.873C38 198.839 37.1333 198 36.0738 198L36.0771 198Z" fill="#FFFFFF"/></g></g></g><text fill="#FFFFFF" font-family="Arial,Arial_MSFontService,sans-serif" font-weight="700" font-size="13" transform="translate(58.4469 215)">LinkdIn</text></g></svg>