<svg width="117" height="37" xmlns="http://www.w3.org/2000/svg" xmlns:xlink="http://www.w3.org/1999/xlink" overflow="hidden"><defs><clipPath id="clip0"><rect x="5" y="236" width="117" height="37"/></clipPath><clipPath id="clip1"><rect x="12" y="241" width="26" height="26"/></clipPath><clipPath id="clip2"><rect x="12" y="241" width="26" height="26"/></clipPath><clipPath id="clip3"><rect x="12" y="241" width="26" height="26"/></clipPath></defs><g clip-path="url(#clip0)" transform="translate(-5 -236)"><path d="M7.50005 240.485C7.50005 238.837 8.83655 237.5 10.4852 237.5L117.515 237.5C119.164 237.5 120.5 238.837 120.5 240.485L120.5 268.515C120.5 270.164 119.164 271.5 117.515 271.5L10.4852 271.5C8.83655 271.5 7.50005 270.164 7.50005 268.515Z" stroke="#000000" stroke-width="1.33333" stroke-miterlimit="8" fill-rule="evenodd"/><path d="M7.50005 269.013 7.50005 239.988C7.50005 238.614 8.61372 237.5 9.98749 237.5L43.5 237.5 43.5 271.5 9.98749 271.5C8.61372 271.5 7.50005 270.386 7.50005 269.013Z" stroke="#4A154B" stroke-width="1.33333" stroke-miterlimit="8" fill="#4A154B" fill-rule="evenodd"/><g clip-path="url(#clip1)"><g clip-path="url(#clip2)"><g clip-path="url(#clip3)"><path d="M17.4622 257.429C17.4592 258.936 16.2392 260.157 14.7322 260.162 13.2243 260.158 12.003 258.937 12 257.429 12.0042 255.922 13.2253 254.702 14.7322 254.699L17.4622 254.699 17.4622 257.429ZM18.8391 257.429C18.8433 255.922 20.0637 254.702 21.5702 254.699 23.0767 254.702 24.2971 255.922 24.3013 257.429L24.3013 264.268C24.2977 265.775 23.0772 266.996 21.5702 267 20.0631 266.996 18.8427 265.775 18.8391 264.268L18.8391 257.429ZM21.5702 246.462C20.064 246.458 18.8438 245.238 18.8391 243.732 18.8427 242.225 20.0631 241.004 21.5702 241 23.0772 241.004 24.2977 242.225 24.3013 243.732L24.3013 246.462 21.5702 246.462ZM21.5702 247.839C23.0768 247.843 24.2971 249.064 24.3013 250.57 24.2971 252.077 23.0768 253.297 21.5702 253.301L14.7322 253.301C13.2251 253.298 12.0042 252.077 12 250.57 12.0042 249.063 13.2251 247.843 14.7322 247.839L21.5702 247.839ZM32.5357 250.57C32.5398 249.063 33.7608 247.843 35.2678 247.839 36.7749 247.843 37.9959 249.063 38 250.57 37.9959 252.077 36.7749 253.298 35.2678 253.301L32.5357 253.301 32.5357 250.57ZM31.162 250.57C31.1578 252.078 29.9362 253.298 28.4288 253.301 26.9223 253.297 25.7023 252.077 25.6988 250.57L25.6988 243.732C25.7017 242.225 26.9219 241.004 28.4288 241 29.9366 241.003 31.1584 242.224 31.162 243.732L31.162 250.57ZM28.4288 261.536C29.9366 261.539 31.1584 262.76 31.162 264.268 31.1584 265.776 29.9366 266.997 28.4288 267 26.9219 266.996 25.7017 265.775 25.6988 264.268L25.6988 261.536 28.4288 261.536ZM28.4288 260.162C26.9215 260.158 25.7011 258.936 25.6988 257.429 25.7023 255.922 26.9225 254.702 28.4288 254.699L35.2678 254.699C36.7746 254.702 37.9959 255.922 38 257.429 37.9971 258.937 36.7757 260.158 35.2678 260.162L28.4288 260.162Z" fill="#FFFFFF"/></g></g></g><text fill="#FFFFFF" font-family="Arial,Arial_MSFontService,sans-serif" font-weight="700" font-size="13" transform="translate(64.8635 259)">Slack</text></g></svg>