<svg width="117" height="37" xmlns="http://www.w3.org/2000/svg" xmlns:xlink="http://www.w3.org/1999/xlink" overflow="hidden"><defs><clipPath id="clip0"><rect x="5" y="280" width="117" height="37"/></clipPath><clipPath id="clip1"><rect x="12" y="286" width="26" height="26"/></clipPath><clipPath id="clip2"><rect x="12" y="286" width="26" height="26"/></clipPath><clipPath id="clip3"><rect x="12" y="286" width="26" height="26"/></clipPath></defs><g clip-path="url(#clip0)" transform="translate(-5 -280)"><path d="M7.50005 285.485C7.50005 283.837 8.83655 282.5 10.4852 282.5L117.515 282.5C119.164 282.5 120.5 283.837 120.5 285.485L120.5 313.515C120.5 315.164 119.164 316.5 117.515 316.5L10.4852 316.5C8.83655 316.5 7.50005 315.164 7.50005 313.515Z" stroke="#000000" stroke-width="1.33333" stroke-miterlimit="8" fill-rule="evenodd"/><path d="M7.50005 314.013 7.50005 284.988C7.50005 283.614 8.61372 282.5 9.98749 282.5L43.5 282.5 43.5 316.5 9.98749 316.5C8.61372 316.5 7.50005 315.386 7.50005 314.013Z" stroke="#1DA1F2" stroke-width="1.33333" stroke-miterlimit="8" fill="#1DA1F2" fill-rule="evenodd"/><g clip-path="url(#clip1)"><g clip-path="url(#clip2)"><g clip-path="url(#clip3)"><path d="M37.9491 290.951C36.9757 291.379 35.9445 291.662 34.8887 291.79 36.0003 291.122 36.8326 290.074 37.2319 288.841 36.2017 289.442 35.0598 289.879 33.8443 290.123 31.8337 287.973 28.4608 287.86 26.3108 289.871 24.9177 291.174 24.3269 293.121 24.7617 294.979 20.3308 294.77 16.4059 292.641 13.7767 289.426 13.2987 290.238 13.0494 291.164 13.0552 292.107 13.0552 293.959 13.9977 295.587 15.4255 296.544 14.5793 296.517 13.7517 296.288 13.0118 295.877L13.0118 295.942C13.0108 298.48 14.7989 300.667 17.2867 301.171 16.5048 301.381 15.6859 301.412 14.8903 301.263 15.5924 303.435 17.5958 304.922 19.878 304.965 17.9925 306.445 15.6644 307.248 13.2675 307.245 12.845 307.245 12.4236 307.22 12 307.173 14.4437 308.737 17.2851 309.568 20.1868 309.566 29.9942 309.566 35.3512 301.445 35.3512 294.415 35.3512 294.188 35.3512 293.96 35.335 293.733 36.3815 292.98 37.2841 292.045 38 290.973Z" fill="#FFFFFF"/></g></g></g><text fill="#FFFFFF" font-family="Arial,Arial_MSFontService,sans-serif" font-weight="700" font-size="13" transform="translate(60.2802 303)">Twitter</text></g></svg>