<svg width="117" height="37" xmlns="http://www.w3.org/2000/svg" xmlns:xlink="http://www.w3.org/1999/xlink" overflow="hidden"><defs><clipPath id="clip0"><rect x="5" y="7" width="117" height="37"/></clipPath><clipPath id="clip1"><rect x="12" y="12" width="26" height="26"/></clipPath><clipPath id="clip2"><rect x="12" y="12" width="26" height="26"/></clipPath><clipPath id="clip3"><rect x="12" y="12" width="26" height="26"/></clipPath></defs><g clip-path="url(#clip0)" transform="translate(-5 -7)"><path d="M7.50005 11.4852C7.50005 9.83655 8.83655 8.50005 10.4852 8.50005L117.515 8.50005C119.164 8.50005 120.5 9.83655 120.5 11.4852L120.5 39.5149C120.5 41.1636 119.164 42.5 117.515 42.5L10.4852 42.5C8.83655 42.5 7.50005 41.1636 7.50005 39.5149Z" stroke="#000000" stroke-width="1.33333" stroke-miterlimit="8" fill-rule="evenodd"/><path d="M7.50005 40.0126 7.50005 10.9875C7.50005 9.61372 8.61372 8.50006 9.98749 8.50006L43.5 8.50006 43.5 42.5001 9.98749 42.5001C8.61372 42.5001 7.50005 41.3864 7.50005 40.0126Z" stroke="#FF0000" stroke-width="1.33333" stroke-miterlimit="8" fill="#FF0000" fill-rule="evenodd"/><g clip-path="url(#clip1)"><g clip-path="url(#clip2)"><g clip-path="url(#clip3)"><path d="M37.4562 18.7015C37.1573 17.5755 36.2814 16.6938 35.1573 16.3875 33.1304 15.8404 25 15.8404 25 15.8404 25 15.8404 16.8696 15.8404 14.8416 16.3875 13.7181 16.6944 12.8428 17.5759 12.5438 18.7015 12 20.7425 12 25 12 25 12 25 12 29.2575 12.5438 31.2985 12.8428 32.4245 13.7186 33.3061 14.8427 33.6125 16.8696 34.1596 25 34.1596 25 34.1596 25 34.1596 33.1304 34.1596 35.1584 33.6125 36.2826 33.3064 37.1585 32.4246 37.4573 31.2985 38 29.2575 38 25 38 25 38 25 38 20.7425 37.4562 18.7015ZM22.3404 28.8653 22.3404 21.1347 29.1362 25 22.3404 28.8653Z" fill="#FFFFFF"/></g></g></g><text fill="#FFFFFF" font-family="Arial,Arial_MSFontService,sans-serif" font-weight="700" font-size="13" transform="translate(53.0302 30)">YouTube</text></g></svg>